<?xml version="1.0" encoding="UTF-8" standalone="no"?>
<!-- Created with Inkscape (http://www.inkscape.org/) -->

<svg
   width="210mm"
   height="297mm"
   viewBox="0 0 210 297"
   version="1.1"
   id="svg1"
   xml:space="preserve"
   xmlns="http://www.w3.org/2000/svg"
   xmlns:svg="http://www.w3.org/2000/svg"><defs
     id="defs1" /><g
     id="layer1"
     transform="matrix(2.3886451,0,0,2.5646146,-167.06995,-218.20058)"><path
       style="fill:#36bdf8;fill-opacity:1;stroke:none;stroke-width:4;stroke-linecap:round;stroke-linejoin:round;stroke-dasharray:none"
       d="m 122.33313,68.552374 c 4.16017,-2.713154 11.63642,-7.054202 13.32456,-6.149756 1.68815,0.904446 -2.41165,7.054141 -9.0439,19.414254 -6.63225,12.360114 -15.7965,30.929778 -19.41402,39.310398 -3.61752,8.38061 -1.6882,6.57188 0.42205,4.70279 2.11026,-1.86908 4.40132,-3.79839 5.78805,-4.70278 1.38673,-0.90438 1.86906,-0.7838 2.11023,0.36178 0.24117,1.14557 0.24117,3.31605 0.0603,4.76308 -0.18088,1.44702 -0.54263,2.17051 -4.03965,5.969 -3.49703,3.79848 -10.12905,10.67167 -13.806887,15.07303 -3.677839,4.40136 -4.401334,6.33068 -6.451306,7.53653 -2.049972,1.20585 -5.426275,1.68818 -7.476223,1.62788 -2.049948,-0.0603 -2.77344,-0.66321 2.89416,-14.59101 5.6676,-13.9278 17.725826,-41.17939 24.177106,-55.348096 6.45129,-14.168705 7.29537,-15.253947 11.45554,-17.9671 z"
       id="path6"
       transform="matrix(0.69199602,0,0,0.68034086,51.473984,43.446808)" /><path
       style="fill:#2fc55e;fill-opacity:1;stroke:none;stroke-width:4;stroke-linecap:round;stroke-linejoin:round;stroke-dasharray:none"
       d="m 71.198452,130.79962 c 1.358373,-1.11361 4.07507,-3.34079 7.710248,-5.23824 3.635179,-1.89745 8.188463,-3.46499 8.997033,-1.84785 0.808569,1.61715 -2.127722,6.41887 -7.454686,16.1153 -5.326964,9.69643 -13.044228,24.28688 -16.782348,31.70284 -3.73812,7.41596 -3.496958,7.65712 2.230925,5.31645 5.727882,-2.34066 16.941808,-7.26288 26.347595,-14.42342 9.405791,-7.16055 17.002321,-16.5586 21.482021,-25.00688 4.47969,-8.44828 5.84201,-15.9458 5.99454,-21.19853 0.15253,-5.25272 -0.90475,-8.26005 -1.34477,-9.83127 -0.44003,-1.57121 -0.26275,-1.70617 0.7231,-3.06098 0.98586,-1.3548 2.78018,-3.929292 3.77682,-5.244967 0.99664,-1.315674 1.19548,-1.37237 2.46884,0.09583 1.27335,1.468203 3.62111,4.461197 5.21707,8.791517 1.59596,4.33033 2.44003,9.99769 2.15293,15.52985 -0.2871,5.53217 -1.70531,10.92871 -4.0887,17.09343 -2.38339,6.16472 -5.73168,13.09689 -12.69419,20.46029 -6.96251,7.36341 -17.538402,15.15716 -27.107101,20.04413 -9.568699,4.88696 -18.129053,6.86656 -23.05875,7.71785 -4.929698,0.8513 -6.228157,0.5742 -7.661214,1.09887 -1.433057,0.52467 -3.000629,1.85108 -6.075584,7.69954 -3.074955,5.84846 -7.657079,16.21853 -10.732002,22.12719 -3.074922,5.90866 -4.642492,7.35565 -6.390991,7.65711 -1.748499,0.30145 -3.677815,-0.54263 -4.94396,-2.04996 -1.266145,-1.50733 -1.869055,-3.67781 -1.989635,-6.45129 -0.12058,-2.77348 0.241167,-6.14978 1.929382,-10.73205 1.688215,-4.58228 4.702772,-10.37023 8.802701,-18.57009 4.099928,-8.19986 9.284829,-18.81082 11.636293,-24.17698 2.351463,-5.36616 1.869135,-5.48674 1.386796,-5.60732 -2.170523,-1.44702 -4.341004,-2.89401 -6.149808,-5.18516 -1.808803,-2.29115 -3.255765,-5.42623 -4.160168,-9.28501 -0.904403,-3.85879 -1.266143,-8.44083 -0.396874,-13.50189 0.869268,-5.06106 2.969441,-10.60054 7.672337,-16.99166 4.702896,-6.39111 12.007949,-13.63309 19.324224,-18.261319 7.316275,-4.628226 14.642892,-6.642143 20.867502,-7.564518 6.22461,-0.922374 11.346462,-0.753095 13.864822,-0.547451 2.51835,0.205644 2.43291,0.447598 1.93619,1.67144 -0.49673,1.223843 -1.40469,3.429452 -1.96889,4.713162 -0.5642,1.28371 -0.7846,1.645447 -2.43369,1.79079 -1.649085,0.145343 -4.726655,0.07427 -8.595821,1.09926 -3.869165,1.02499 -8.529552,3.14596 -12.789186,5.834396 -4.259634,2.68844 -8.118266,5.94416 -11.920313,10.16108 -3.802047,4.21692 -7.547212,9.39467 -10.019244,14.27844 -2.472033,4.88377 -3.67067,9.47309 -3.404728,13.45601 0.265943,3.98292 1.996377,7.35915 3.106418,9.05455 1.110041,1.69541 1.599546,1.70977 2.458035,0.60332 0.858488,-1.10645 2.08585,-3.33358 3.933788,-6.55748 1.847939,-3.22391 4.316281,-7.44429 5.550475,-9.55452 1.234195,-2.11023 1.234195,-2.1102 2.592568,-3.22381 z"
       id="path7"
       transform="matrix(0.69199602,0,0,0.68034086,51.470482,46.198918)" /><path
       style="fill:#36bdf8;fill-opacity:1;stroke:none;stroke-width:4;stroke-linecap:round;stroke-linejoin:round;stroke-dasharray:none"
       d="m 146.55999,157.17299 c -0.59245,1.81136 -2.65349,5.08877 -5.1901,7.30923 -2.5366,2.22046 -5.54848,3.38372 -8.27157,3.29266 -2.72309,-0.0911 -5.15706,-1.43646 -6.10289,-5.27425 -0.94584,-3.83778 -0.4034,-10.16749 0.84654,-15.20149 1.24994,-5.034 3.20728,-8.77175 5.04395,-12.30477 1.83668,-3.53302 3.55253,-6.86101 4.41622,-9.11187 0.86368,-2.25086 0.87508,-3.42429 0.26748,-3.95223 -0.60761,-0.52794 -1.83416,-0.41032 -2.8306,-0.2396 -0.99645,0.17073 -1.7627,0.39454 -2.11296,-0.23266 -0.35027,-0.6272 -0.28451,-2.10534 0.22569,-3.08976 0.5102,-0.98442 1.46479,-1.47499 4.00834,-1.71334 2.54355,-0.23835 6.67574,-0.22445 8.80141,0.78652 2.12568,1.01098 2.24453,3.01889 1.82156,5.60798 -0.42298,2.58909 -1.38773,5.75902 -2.64275,9.41727 -1.25503,3.65825 -2.80021,7.80444 -3.9294,10.79562 -1.1292,2.99117 -1.84234,4.82713 -2.37786,6.90031 -0.53551,2.07318 -0.89332,4.38333 -0.98626,6.18713 -0.0929,1.80381 0.079,3.10108 1.01096,2.98854 0.93194,-0.11254 2.62373,-1.63485 3.89079,-2.64769 1.26706,-1.01283 2.10925,-1.51606 2.96847,-1.59509 0.85921,-0.079 1.73543,0.26613 1.14298,2.07749 z"
       id="path8"
       transform="matrix(0.62918448,-0.06411508,0.06066103,0.59528863,54.187656,61.218674)" /></g></svg>
