<svg width="224" height="256" viewBox="0 0 224 256" fill="none" xmlns="http://www.w3.org/2000/svg">
<rect width="224" height="256" fill="#F5F5F5"/>
<path d="M0 100C0 52.8595 0 29.2893 14.6447 14.6447C29.2893 0 52.8595 0 100 0H124C171.14 0 194.711 0 209.355 14.6447C224 29.2893 224 52.8595 224 100V125C224 175.912 224 201.368 208.184 217.184C192.368 233 166.587 233 115.027 233C60.6022 233 33.3898 233 16.6949 216.305C0 199.61 0 172.74 0 119V100Z" fill="url(#paint0_linear_0_1)"/>
<path d="M106.777 25.7862C134.556 27.2953 153.249 10.1274 177.943 22.527C193.576 30.376 200.38 39.1961 209.291 53.8917C220.275 72.0052 220.245 103.967 219.903 114.531C219.828 116.862 219.269 119.116 218.274 121.225C215.582 126.934 209.558 139.079 203.284 147.515C198.006 154.612 188.215 163.967 181.089 170.433C175.508 175.497 171.01 181.643 167.115 188.093C163.377 194.282 157.936 201.868 151.567 206.43C138.911 215.496 128.497 216.985 112.749 217C97.2282 217.015 86.8163 215.852 74.4282 206.807C62.4213 198.041 63.9884 188.431 53.5 178C29.0575 153.69 13.2403 145.931 6.24753 118.03C0.0783 93.4146 2.32663 75.3689 16.206 53.8917C27.7987 35.9532 38.7434 25.1148 59.9958 20.1248C77.8878 15.9238 88.3942 24.7876 106.777 25.7862Z" fill="#FF9254"/>
<path d="M129 77C129 57.67 144.67 42 164 42C183.33 42 199 57.67 199 77V105C199 124.33 183.33 140 164 140C144.67 140 129 124.33 129 105V77Z" fill="#D9D9D9"/>
<path d="M153 76.5C153 66.835 160.835 59 170.5 59C180.165 59 188 66.835 188 76.5V104.5C188 114.165 180.165 122 170.5 122C160.835 122 153 114.165 153 104.5V76.5Z" fill="#4B4B4B"/>
<path d="M171.025 69.0292C171.011 74.5359 165.851 78.9869 159.5 78.9708C153.149 78.9547 148.011 74.4775 148.025 68.9708C148.039 63.4641 153.199 59.0131 159.55 59.0292C165.902 59.0453 171.039 63.5225 171.025 69.0292Z" fill="#D9D9D9"/>
<path d="M30 77C30 57.67 45.67 42 65 42C84.33 42 100 57.67 100 77V105C100 124.33 84.33 140 65 140C45.67 140 30 124.33 30 105V77Z" fill="#D9D9D9"/>
<path d="M53 75.5C53 65.835 60.835 58 70.5 58C80.165 58 88 65.835 88 75.5V103.5C88 113.165 80.165 121 70.5 121C60.835 121 53 113.165 53 103.5V75.5Z" fill="#4B4B4B"/>
<path d="M71.025 68.0292C71.011 73.5359 65.851 77.9869 59.4998 77.9708C53.1486 77.9547 48.0113 73.4775 48.0253 67.9708C48.0393 62.4641 53.1993 58.0131 59.5504 58.0292C65.9016 58.0453 71.0389 62.5225 71.025 68.0292Z" fill="#D9D9D9"/>
<path d="M80 255H81V256H80V255Z" fill="#D9D9D9"/>
<path d="M116 169.75L143.713 139H88.2872L116 169.75Z" fill="url(#paint1_linear_0_1)"/>
<path d="M147 183C147 185.758 146.198 188.489 144.64 191.036C143.082 193.584 140.799 195.899 137.92 197.849C135.042 199.799 131.624 201.346 127.863 202.401C124.102 203.457 120.071 204 116 204C111.929 204 107.898 203.457 104.137 202.401C100.376 201.346 96.9583 199.799 94.0797 197.849C91.2011 195.899 88.9176 193.584 87.3597 191.036C85.8018 188.489 85 185.758 85 183H147Z" fill="#733C02"/>
<defs>
<linearGradient id="paint0_linear_0_1" x1="112" y1="0" x2="112" y2="256" gradientUnits="userSpaceOnUse">
<stop stop-color="#C46703"/>
<stop offset="1" stop-color="#5E3101"/>
</linearGradient>
<linearGradient id="paint1_linear_0_1" x1="112" y1="264.325" x2="112" y2="-77.0081" gradientUnits="userSpaceOnUse">
<stop stop-color="#C46703"/>
<stop offset="1" stop-color="#5E3101"/>
</linearGradient>
</defs>
</svg>
